<svg xmlns="http://www.w3.org/2000/svg" viewBox="0 0 1920 1080"><defs><style>.cls-1{fill:#070707;}.cls-2{fill:#f22222;}</style></defs><title>Adrian Miasik Logo 2019</title><g id="Second"><polygon class="cls-1" points="1119.55 517.52 1079.55 448.24 1039.55 378.96 959.55 378.96 999.55 448.24 1039.55 517.52 1079.55 586.8 1159.55 586.8 1119.55 517.52"/></g><g id="First"><polygon class="cls-1" points="959.55 517.52 919.55 448.24 879.55 378.96 839.55 448.24 879.55 517.52 919.55 586.8 999.55 586.8 959.55 517.52"/></g><g id="Red_Triangle" data-name="Red Triangle"><polygon class="cls-2" points="839.55 586.8 759.55 586.8 799.55 517.52 839.55 586.8"/></g><g id="Miasik"><path class="cls-1" d="M1025.57,682.9l-11-13.76v30.79h-14.11V641.44H1010l18.32,23.91q4.2-5.93,8.38-12t8.39-12h9.2v58.49h-14.19v-30.1c-1.44,2.06-2.91,4.11-4.43,6.14s-3,4.09-4.52,6.15a25,25,0,0,0-2.79.35C1027.42,682.64,1026.49,682.78,1025.57,682.9Z"/><path class="cls-1" d="M1081.22,641.44v58.49h-14.11V641.44Z"/><path class="cls-1" d="M1124.21,641.44l22.11,56.94-13.94,1.55-4.55-12.3h-20.9l-4.47,12.3h-14l22.19-58.49Zm-7,17.55-6.28,17.46h12.82Z"/><path class="cls-1" d="M1150.62,656.67a14.66,14.66,0,0,1,5.67-11.7q5.68-4.72,15.57-4.73a34.91,34.91,0,0,1,16.94,4.65L1184.5,655q-4-1.47-6.62-2.2A22.42,22.42,0,0,0,1172,652a8.48,8.48,0,0,0-4.94,1.29,4,4,0,0,0-1.85,3.44q0,2.41,2.83,4c1.9,1.09,4.16,2.32,6.8,3.69a67.23,67.23,0,0,1,11.87,7.83,14.67,14.67,0,0,1,5.67,11.87,14.86,14.86,0,0,1-6,12q-6,4.82-16.72,4.81a40.75,40.75,0,0,1-9.94-1.46,30,30,0,0,1-8.64-3.35l4.3-10.84a32.32,32.32,0,0,0,6.5,2.62,25.37,25.37,0,0,0,7.43,1.25c2.81,0,4.93-.51,6.37-1.55a4.48,4.48,0,0,0,2.15-3.69q0-2-3.06-3.92a76,76,0,0,0-6.66-3.74,77.23,77.23,0,0,1-11.74-7.61A14.52,14.52,0,0,1,1150.62,656.67Z"/><path class="cls-1" d="M1215.72,641.44v58.49h-14.11V641.44Z"/><path class="cls-1" d="M1242.29,641.44V663.2l23-23,10.84,8-19,19.1L1281,699.93H1263.1l-15.91-22.79-4.9,5v17.81h-14.1V641.44Z"/></g><g id="Adrian"><path class="cls-2" d="M674.79,641.53l22.1,56.93L683,700l-4.56-12.3H657.5L653,700H639l22.19-58.48Zm-7.06,17.54-6.27,17.46h12.81Z"/><path class="cls-2" d="M728,700H704V641.53h24q13.68,0,20.64,8.13t7,20.76q0,13.59-7.56,21.59T728,700Zm-.17-47.13h-9.72v35.86h9.11a12.55,12.55,0,0,0,9.9-4.43q3.87-4.42,3.87-13.89,0-7.81-3.32-12.68C735.49,654.5,732.2,652.88,727.85,652.88Z"/><path class="cls-2" d="M800.43,700q-2.67-4.9-5.25-9.85T790,680.31a10.89,10.89,0,0,1-1.41.09h-9.08V700h-14.1V641.53h22.44a30,30,0,0,1,16.77,4.6q7.05,4.61,7.06,14.75a17.06,17.06,0,0,1-2.45,9.24,18.63,18.63,0,0,1-6.15,6.15q3.35,5.94,6.66,11.91T816.43,700Zm-13-47.13h-7.91v16.25h8.09a10.47,10.47,0,0,0,6.75-2.1,7.23,7.23,0,0,0,2.62-6q0-4.21-2.54-6.19A11.13,11.13,0,0,0,787.44,652.88Z"/><path class="cls-2" d="M837.84,641.53V700h-14.1V641.53Z"/><path class="cls-2" d="M880.84,641.53l22.1,56.93L889,700l-4.56-12.3h-20.9L859.08,700h-14l22.19-58.48Zm-7.05,17.54-6.28,17.46h12.81Z"/><path class="cls-2" d="M961.68,641.53V700H948.26q-6-8.34-12.08-17t-12-17V700h-14.1V641.53h13.41l24.08,34.74V641.53Z"/></g></svg>